#!OML:ASF G:\JayActor3\Patient Classification 1\Patient 1\Session 6\male.ASF
:FULLY-SPECIFIED
:DEGREES
1895
root 10.1245 13.6284 -4.56995 79.7448 -66.3644 -30.6339
lowerback 31.853 -1.52963 2.45115
upperback 20.8926 -3.39096 -1.74273
thorax 6.24184 -1.97801 -2.42013
lowerneck 1.62256 7.11104 1.56077
upperneck -14.431 10.0674 1.16931
head -5.11054 4.78297 -0.361408
rclavicle -6.36111e-015 -2.38542e-015
rhumerus -9.49302 9.69784 -79.5686
rradius 71.2977
rwrist -6.30434
rhand -26.2701 -8.88353
rfingers 7.12502
rthumb 0.284836 -38.8631
lclavicle -6.36111e-015 -2.38542e-015
lhumerus 61.2583 11.6107 38.8478
lradius 34.6275
lwrist 14.6701
lhand -29.4609 14.0563
lfingers 7.12502
lthumb -2.79685 44.0177
rfemur -101.927 0.374745 37.8704
rtibia 79.3451
rfoot -24.6566 -12.4181
rtoes -3.8773
lfemur -108.64 10.754 -26.8183
ltibia 82.2247
lfoot -25.5195 16.2123
ltoes -0.36059
1896
root 10.1239 13.6275 -4.5698 79.8225 -66.3392 -30.6988
lowerback 31.8548 -1.53575 2.44835
upperback 20.8924 -3.3989 -1.75759
thorax 6.23961 -1.98106 -2.43229
lowerneck 1.60631 7.11983 1.59101
upperneck -14.4473 10.0813 1.16815
head -5.11162 4.78773 -0.367102
rclavicle 7.95139e-014 2.22639e-014
rhumerus -9.46425 9.72743 -79.602
rradius 71.2996
rwrist -6.29958
rhand -26.2611 -8.87972
rfingers 7.12502
rthumb 0.293567 -38.8593
lclavicle 7.95139e-014 2.22639e-014
lhumerus 61.2431 11.5748 38.7819
lradius 34.5907
lwrist 14.7234
lhand -29.4023 14.0875
lfingers 7.12502
lthumb -2.74027 44.0496
rfemur -101.928 0.391762 37.92
rtibia 79.3349
rfoot -24.6594 -12.3949
rtoes -3.86262
lfemur -108.677 10.7805 -26.7964
ltibia 82.2457
lfoot -25.5308 16.2022
ltoes -0.369384
1897
root 10.1233 13.6264 -4.56968 79.9091 -66.3073 -30.7729
lowerback 31.855 -1.54532 2.44704
upperback 20.894 -3.41087 -1.7742
thorax 6.23951 -1.98582 -2.44627
lowerneck 1.58838 7.13341 1.61954
upperneck -14.4632 10.1018 1.16709
head -5.11228 4.79588 -0.372699
rclavicle -4.77083e-014 -5.88403e-014
rhumerus -9.42856 9.76484 -79.6393
rradius 71.2979
rwrist -6.29992
rhand -26.2634 -8.87144
rfingers 7.12502
rthumb 0.291297 -38.851
lclavicle -4.77083e-014 -5.88403e-014
lhumerus 61.2189 11.5382 38.6986
lradius 34.5559
lwrist 14.7778
lhand -29.326 14.1374
lfingers 7.12502
lthumb -2.66652 44.1005
rfemur -101.929 0.41312 37.9764
rtibia 79.3251
rfoot -24.6604 -12.3771
rtoes -3.86027
lfemur -108.716 10.8083 -26.7622
ltibia 82.2686
lfoot -25.5414 16.1961
ltoes -0.382033
1898
root 10.1227 13.6254 -4.5696 79.9997 -66.273 -30.8522
lowerback 31.8558 -1.55749 2.44334
upperback 20.8974 -3.42672 -1.79313
thorax 6.24097 -1.99257 -2.46058
lowerneck 1.57465 7.15043 1.64557
upperneck -14.4821 10.1273 1.1662
head -5.11513 4.80654 -0.378353
rclavicle 6.04305e-014 2.94201e-014
rhumerus -9.38782 9.80546 -79.6812
rradius 71.295
rwrist -6.30133
rhand -26.2696 -8.86084
rfingers 7.12502
rthumb 0.285365 -38.8404
lclavicle 6.04305e-014 2.94201e-014
lhumerus 61.1843 11.5025 38.5946
lradius 34.5287
lwrist 14.8362
lhand -29.2355 14.2119
lfingers 7.12502
lthumb -2.57917 44.176
rfemur -101.929 0.437065 38.0342
rtibia 79.3154
rfoot -24.6605 -12.3608
rtoes -3.86049
lfemur -108.755 10.8375 -26.7228
ltibia 82.2929
lfoot -25.5526 16.1925
ltoes -0.388812
1899
root 10.122 13.6243 -4.56953 80.1006 -66.232 -30.9428
lowerback 31.8579 -1.57226 2.44205
upperback 20.9017 -3.44533 -1.8134
thorax 6.24272 -2.00039 -2.4769
lowerneck 1.56169 7.17104 1.67184
upperneck -14.4977 10.1577 1.16439
head -5.11676 4.81975 -0.384524
rclavicle 6.67916e-014 -7.95139e-016
rhumerus -9.3464 9.8488 -79.7271
rradius 71.2947
rwrist -6.30199
rhand -26.2851 -8.84531
rfingers 7.12502
rthumb 0.270426 -38.8249
lclavicle 6.67916e-014 -7.95139e-016
lhumerus 61.1388 11.4703 38.4744
lradius 34.5149
lwrist 14.8941
lhand -29.1332 14.288
lfingers 7.12502
lthumb -2.48035 44.2534
rfemur -101.925 0.465752 38.0979
rtibia 79.3045
rfoot -24.6592 -12.3454
rtoes -3.86153
lfemur -108.795 10.8702 -26.6747
ltibia 82.3184
lfoot -25.5618 16.1929
ltoes -0.396814
1900
root 10.1213 13.6233 -4.5694 80.2086 -66.1868 -31.0415
lowerback 31.8633 -1.59026 2.44277
upperback 20.9069 -3.46748 -1.83598
thorax 6.24372 -2.00964 -2.49577
lowerneck 1.55308 7.19504 1.69517
upperneck -14.5149 10.193 1.16305
head -5.12013 4.83547 -0.390548
rclavicle -1.08139e-013 -2.8625e-014
rhumerus -9.30681 9.89084 -79.7776
rradius 71.301
rwrist -6.29967
rhand -26.293 -8.82859
rfingers 7.12502
rthumb 0.262762 -38.8082
lclavicle -1.08139e-013 -2.8625e-014
lhumerus 61.0825 11.444 38.3467
lradius 34.5169
lwrist 14.9409
lhand -29.0285 14.3592
lfingers 7.12502
lthumb -2.37928 44.3257
rfemur -101.92 0.496709 38.1657
rtibia 79.2927
rfoot -24.6553 -12.3299
rtoes -3.86629
lfemur -108.836 10.9044 -26.6191
ltibia 82.3454
lfoot -25.5695 16.1991
ltoes -0.410037
1901
root 10.1206 13.6223 -4.56924 80.3279 -66.143 -31.1491
lowerback 31.867 -1.60999 2.44231
upperback 20.9135 -3.49227 -1.86331
thorax 6.24658 -2.0199 -2.51853
lowerneck 1.54504 7.22251 1.72015
upperneck -14.5297 10.2331 1.16012
head -5.12245 4.8536 -0.397551
rclavicle 7.63333e-014 1.51076e-014
rhumerus -9.26944 9.9264 -79.8352
rradius 71.3156
rwrist -6.29212
rhand -26.2908 -8.8119
rfingers 7.12502
rthumb 0.264888 -38.7915
lclavicle 7.63333e-014 1.51076e-014
lhumerus 61.023 11.4259 38.2093
lradius 34.5319
lwrist 14.9805
lhand -28.9311 14.4144
lfingers 7.12502
lthumb -2.28513 44.3819
rfemur -101.916 0.532138 38.2325
rtibia 79.2795
rfoot -24.6497 -12.3145
rtoes -3.86965
lfemur -108.88 10.9402 -26.5615
ltibia 82.3734
lfoot -25.5804 16.2053
ltoes -0.40525
1902
root 10.12 13.6212 -4.56895 80.4555 -66.0986 -31.2617
lowerback 31.8696 -1.631 2.44434
upperback 20.9211 -3.51822 -1.8928
thorax 6.25068 -2.0303 -2.5447
lowerneck 1.57564 7.25134 1.73504
upperneck -14.9708 10.2858 1.16829
head -4.73581 4.87028 -0.382946
rclavicle -2.54444e-014 5.40694e-014
rhumerus -9.23876 9.95119 -79.8949
rradius 71.3429
rwrist -6.282
rhand -26.2752 -8.79538
rfingers 7.12502
rthumb 0.279913 -38.7749
lclavicle -2.54444e-014 5.40694e-014
lhumerus 60.9676 11.415 38.0748
lradius 34.555
lwrist 15.0098
lhand -28.8562 14.4401
lfingers 7.12502
lthumb -2.21278 44.4084
rfemur -101.916 0.569551 38.3009
rtibia 79.2652
rfoot -24.6436 -12.2974
rtoes -3.87303
lfemur -108.927 10.9752 -26.5
ltibia 82.4022
lfoot -25.5918 16.2149
ltoes -0.39546
1903
root 10.1193 13.6202 -4.56851 80.5904 -66.054 -31.3804
lowerback 31.874 -1.65157 2.44711
upperback 20.9304 -3.54383 -1.92356
thorax 6.25573 -2.04042 -2.57268
lowerneck 1.57364 7.28381 1.76379
upperneck -14.9872 10.333 1.16178
head -4.7388 4.89188 -0.391687
rclavicle 0 5.32743e-014
rhumerus -9.21551 9.96764 -79.9545
rradius 71.3839
rwrist -6.27527
rhand -26.2546 -8.7811
rfingers 7.12502
rthumb 0.29985 -38.7606
lclavicle 0 5.32743e-014
lhumerus 60.9222 11.4125 37.9492
lradius 34.5805
lwrist 15.0273
lhand -28.8087 14.4502
lfingers 7.12502
lthumb -2.16692 44.4189
rfemur -101.915 0.60815 38.3719
rtibia 79.2487
rfoot -24.6375 -12.2781
rtoes -3.87321
lfemur -108.975 11.0102 -26.4344
ltibia 82.4302
lfoot -25.6029 16.2294
ltoes -0.389566
1904
root 10.1186 13.6193 -4.56783 80.7229 -66.0136 -31.4956
lowerback 31.8807 -1.67036 2.44881
upperback 20.9413 -3.56788 -1.95389
thorax 6.26201 -2.04996 -2.60001
lowerneck 1.57337 7.31697 1.78878
upperneck -15.0033 10.3816 1.15924
head -4.74236 4.91406 -0.398786
rclavicle -2.8625e-014 2.8625e-014
rhumerus -9.20381 9.97335 -80.0084
rradius 71.4408
rwrist -6.2713
rhand -26.2365 -8.7726
rfingers 7.12502
rthumb 0.317348 -38.7521
lclavicle -2.8625e-014 2.8625e-014
lhumerus 60.8965 11.4164 37.8404
lradius 34.6004
lwrist 15.0438
lhand -28.7962 14.4557
lfingers 7.12502
lthumb -2.1549 44.4246
rfemur -101.914 0.642885 38.4414
rtibia 79.2307
rfoot -24.6305 -12.2545
rtoes -3.8752
lfemur -109.02 11.0421 -26.3716
ltibia 82.4557
lfoot -25.616 16.2449
ltoes -0.379366
